<?xml version="1.0" encoding="UTF-8"?>
<svg width="237px" height="221px" viewBox="0 0 237 221" version="1.1" xmlns="http://www.w3.org/2000/svg" xmlns:xlink="http://www.w3.org/1999/xlink">
    <!-- Generator: Sketch 47.1 (45422) - http://www.bohemiancoding.com/sketch -->
    <title>Artboard 1.3.2.1</title>
    <desc>Created with Sketch.</desc>
    <defs></defs>
    <g id="Page-1" stroke="none" stroke-width="1" fill="none" fill-rule="evenodd">
        <g id="Artboard-1.3.2.1" stroke="#4C442B">
            <path d="M155.625017,213 L166.276002,213 C207.556253,197.463675 230,157.776398 230,113.003577 C230,54.4594181 180.07975,7 118.5,7 C56.9202504,7 7,54.4594181 7,113.003577 C7,132.816201 11.5250485,162.217776 26.0690943,180.916085 C34.6867733,191.99526 45.9966496,201.209233 55.6846118,206.878641 C62.347011,210.777485 67.0663367,211.749623 71.9675647,213 C78.2429179,213 84.322423,213 90.20608,213" id="Combined-Shape" stroke-width="13"></path>
            <g id="Group-10" transform="translate(90.000000, 48.000000)" stroke-linecap="square">
                <path d="M1.5,165 L1.5,81.3867603" id="Line-4" stroke-width="13"></path>
                <polyline id="Path" stroke-width="5" points="40 101 87.6687817 50.8045411 40 0"></polyline>
            </g>
            <path d="M94,162 L154.5,210.5" id="Line" stroke-width="13" stroke-linecap="square"></path>
            <path d="M64,93 L124.593333,93" id="Line" stroke-width="4" stroke-linecap="square"></path>
            <path d="M64,108 L124.593333,108" id="Line" stroke-width="4" stroke-linecap="square"></path>
        </g>
    </g>
</svg>